
<svg width="189px" height="24px" viewBox="0 0 189 24" version="1.1" xmlns="http://www.w3.org/2000/svg" xmlns:xlink="http://www.w3.org/1999/xlink">
    <!-- Generator: Sketch 46.2 (44496) - http://www.bohemiancoding.com/sketch -->
    <desc>Created with Sketch.</desc>
    <defs>
        <polygon id="path-1" points="0 23.9436279 188.783484 23.9436279 188.783484 0 0 0"></polygon>
    </defs>
    <g id="Page-1" stroke="none" stroke-width="1" fill="none" fill-rule="evenodd">
        <g id="Group">
            <g id="Page-1">
                <path d="M50.6791271,6.99817674 C55.480005,6.99873488 58.27248,9.81929302 58.27248,13.6475721 L58.27248,23.5012465 L53.3031697,23.5012465 L53.3031697,14.7144558 C53.3031697,12.9261767 52.1472124,11.7965023 50.6785712,11.7959442 C49.2329991,11.7965023 48.0928844,12.8921302 48.0573079,14.6315721 L48.0573079,23.5012465 L48.0539726,23.5012465 L43.0879976,23.5012465 L43.0843844,23.5012465 L43.0843844,14.6315721 C43.04853,12.8921302 41.9084153,11.7965023 40.4631212,11.7959442 C38.99448,11.7965023 37.8385226,12.9261767 37.8385226,14.7144558 L37.8385226,23.5012465 L32.8692124,23.5012465 L32.8692124,13.6475721 C32.8692124,9.81929302 35.6616874,6.99873488 40.4625653,6.99817674 L40.4628432,6.99817674 L40.4631212,6.99817674 L40.463955,6.99817674 C42.5782535,6.99845581 44.3026006,7.54626977 45.5708462,8.4856186 C46.8390918,7.54626977 48.5634388,6.99845581 50.6777374,6.99817674 L50.6788491,6.99817674 L50.6791271,6.99817674 Z" id="Fill-1" fill="#232323"></path>
                <path d="M161.856821,6.99817674 L161.856821,6.99817674 L161.856265,6.99817674 L161.855709,6.99817674 L161.855431,6.99817674 C159.741132,6.99845581 158.016785,7.54626977 156.74854,8.4856186 C155.480294,7.54626977 153.755947,6.99845581 151.641649,6.99817674 L151.641093,6.99817674 L151.640259,6.99817674 C146.839381,6.99873488 144.046906,9.81929302 144.046906,13.6475721 L144.046906,23.5012465 L149.016216,23.5012465 L149.016216,14.7144558 C149.016216,12.9261767 150.172174,11.7965023 151.640815,11.7959442 C153.086109,11.7965023 154.226501,12.8921302 154.262078,14.6315721 L154.262078,23.5012465 L154.265691,23.5012465 L159.231666,23.5012465 L159.234724,23.5012465 L159.234724,14.6315721 C159.270578,12.8921302 160.410693,11.7965023 161.856265,11.7959442 C163.324628,11.7965023 164.480585,12.9261767 164.480585,14.7144558 L164.480585,23.5012465 L169.450174,23.5012465 L169.450174,13.6475721 C169.450174,9.81929302 166.657699,6.99873488 161.856821,6.99817674" id="Fill-3" fill="#232323"></path>
                <path d="M119.608122,23.5638698 L114.638534,23.5638698 L114.638534,13.1188465 C114.638534,9.41586977 117.1703,7.06219535 120.951968,7.06219535 C122.014537,7.06219535 123.045976,7.28182326 124.046287,7.72107907 L122.98344,11.612707 C122.514553,11.4555907 122.014537,11.3612651 121.639594,11.3612651 C120.451673,11.3612651 119.608122,12.0829395 119.608122,13.3381953 L119.608122,23.5638698 Z" id="Fill-5" fill="#232323"></path>
                <mask id="mask-2" fill="white">
                    <use xlink:href="#path-1"></use>
                </mask>
                <g id="Clip-8"></g>
                <path d="M79.7318735,23.5018605 L84.7325912,23.5018605 L84.7325912,7.44111628 L79.7318735,7.44111628 L79.7318735,23.5018605 Z M85.1389412,2.85572093 C85.1389412,4.45590698 83.9198912,5.64865116 82.2322324,5.64865116 C80.5445735,5.64865116 79.3569309,4.45590698 79.3569309,2.85572093 C79.3569309,1.31804651 80.5445735,0 82.2322324,0 C83.9198912,0 85.1389412,1.31804651 85.1389412,2.85572093 L85.1389412,2.85572093 Z" id="Fill-7" fill="#232323" mask="url(#mask-2)"></path>
                <path d="M112.825162,7.44103256 L112.825162,11.4261488 L109.144665,11.4261488 L109.144665,23.5017767 L104.175355,23.5017767 L104.175355,6.50084651 C104.175355,2.7975907 106.706843,0.443916279 110.488789,0.443916279 C111.551358,0.443916279 112.582797,0.663544186 113.58283,1.10307907 L112.519983,4.99442791 C112.051374,4.83731163 111.551358,4.74326512 111.176137,4.74326512 C109.988494,4.74326512 109.144665,5.46493953 109.144665,6.72019535 L109.144665,7.44103256 L112.825162,7.44103256 Z" id="Fill-9" fill="#232323" mask="url(#mask-2)"></path>
                <path d="M94.4562243,6.99817674 L94.4562243,6.99817674 L94.4556684,6.99817674 L94.4548346,6.99817674 C89.6539566,6.99873488 86.8614816,9.81929302 86.8614816,13.6475721 L86.8614816,23.5012465 L91.8310699,23.5012465 L91.8310699,14.7144558 C91.8310699,12.9261767 92.9870272,11.7965023 94.4556684,11.7962233 C95.9240316,11.7965023 97.0802669,12.9261767 97.0802669,14.7144558 L97.0802669,23.5012465 L102.049577,23.5012465 L102.049577,13.6475721 C102.049577,9.81929302 99.2571022,6.99873488 94.4562243,6.99817674" id="Fill-10" fill="#232323" mask="url(#mask-2)"></path>
                <path d="M68.8211537,19.3241302 C66.6148566,19.3241302 64.8263051,17.5986419 64.8263051,15.4704558 C64.8263051,13.3422698 66.6148566,11.6170605 68.8211537,11.6170605 C71.0274507,11.6170605 72.8160022,13.3422698 72.8160022,15.4704558 C72.8160022,17.5986419 71.0274507,19.3241302 68.8211537,19.3241302 M77.6049287,15.4704558 C77.6049287,10.791014 73.672339,6.99733953 68.8211537,6.99733953 C63.9699684,6.99733953 60.0373787,10.791014 60.0373787,15.4704558 C60.0373787,20.1501767 63.9699684,23.9438512 68.8211537,23.9438512 C70.5146493,23.9438512 72.0953007,23.4803163 73.4366449,22.679107 L73.4366449,23.5018047 L77.603539,23.5018047 L77.603539,15.6105488 C77.603539,15.6105488 77.6049287,15.5187349 77.6049287,15.4704558" id="Fill-11" fill="#232323" mask="url(#mask-2)"></path>
                <path d="M133.137687,19.3241302 C130.93139,19.3241302 129.142838,17.5986419 129.142838,15.4704558 C129.142838,13.3422698 130.93139,11.6170605 133.137687,11.6170605 C135.343706,11.6170605 137.132535,13.3422698 137.132535,15.4704558 C137.132535,17.5986419 135.343706,19.3241302 133.137687,19.3241302 M141.921462,15.4704558 C141.921462,10.791014 137.988594,6.99733953 133.137687,6.99733953 C128.286502,6.99733953 124.353634,10.791014 124.353634,15.4704558 C124.353634,20.1501767 128.286502,23.9438512 133.137687,23.9438512 C134.831183,23.9438512 136.411834,23.4803163 137.753178,22.679107 L137.753178,23.5018047 L141.920072,23.5018047 L141.920072,15.6105488 C141.920072,15.6105488 141.921462,15.5187349 141.921462,15.4704558" id="Fill-12" fill="#232323" mask="url(#mask-2)"></path>
                <path d="M179.999792,11.6170047 C181.345861,11.6170047 182.532114,12.2616558 183.255039,13.246214 L176.744545,13.246214 C177.467192,12.2616558 178.653723,11.6170047 179.999792,11.6170047 L179.999792,11.6170047 Z M188.686566,16.7278884 C188.749936,16.3176558 188.783567,15.8979349 188.783567,15.4706791 C188.783567,10.7909581 184.850978,6.99728372 179.999792,6.99728372 C175.148607,6.99728372 171.216017,10.7909581 171.216017,15.4706791 C171.216017,20.1501209 175.148607,23.9437953 179.999792,23.9437953 C183.943778,23.9437953 187.280739,21.4357953 188.390558,17.9831442 L183.024904,17.9831442 C182.291973,18.8030512 181.209948,19.3240744 179.999792,19.3240744 C178.250153,19.3240744 176.767058,18.2376558 176.226463,16.7270512 L182.80533,16.7270512 L188.686566,16.7278884 Z" id="Fill-13" fill="#232323" mask="url(#mask-2)"></path>
                <path d="M20.535795,19.1445209 C18.5148847,19.1445209 16.8766994,17.4994047 16.8766994,15.4705674 C16.8766994,13.4414512 18.5148847,11.796893 20.535795,11.796893 C22.5567053,11.796893 24.1948906,13.4414512 24.1948906,15.4705674 C24.1948906,17.4994047 22.5567053,19.1445209 20.535795,19.1445209 M20.535795,6.9980093 C18.1627332,6.9980093 16.0200847,7.98284651 14.4869612,9.5660093 C15.9650524,11.0919628 16.8766994,13.1738233 16.8766994,15.4705674 C16.8766994,17.7673116 15.9650524,19.8491721 14.4869612,21.3754047 C16.0200847,22.9582884 18.1627332,23.9431256 20.535795,23.9431256 C25.1963126,23.9431256 28.9740891,20.1500093 28.9740891,15.4705674 C28.9740891,10.7911256 25.1963126,6.9980093 20.535795,6.9980093" id="Fill-14" fill="#00A8E7" mask="url(#mask-2)"></path>
                <path d="M8.43829412,19.1445209 C6.41738382,19.1445209 4.77919853,17.4994047 4.77919853,15.4705674 C4.77919853,13.4414512 6.41738382,11.796893 8.43829412,11.796893 C10.4592044,11.796893 12.0973897,13.4414512 12.0973897,15.4705674 C12.0973897,17.4994047 10.4592044,19.1445209 8.43829412,19.1445209 M14.4871279,9.5660093 C12.9540044,7.98284651 10.8113559,6.9980093 8.43829412,6.9980093 C3.77777647,6.9980093 0,10.7911256 0,15.4705674 C0,20.1500093 3.77777647,23.9431256 8.43829412,23.9431256 C10.8113559,23.9431256 12.9540044,22.9582884 14.4871279,21.3754047 C13.0090368,19.8491721 12.0973897,17.7673116 12.0973897,15.4705674 C12.0973897,13.1738233 13.0090368,11.0919628 14.4871279,9.5660093" id="Fill-15" fill="#DA1157" mask="url(#mask-2)"></path>
                <path d="M12.0967226,15.4716558 C12.0967226,17.7681209 13.0083697,19.8499814 14.4864609,21.376214 C15.9645521,19.8499814 16.8759212,17.7681209 16.8759212,15.4716558 C16.8759212,13.1749116 15.9645521,11.0930512 14.4864609,9.5668186 C13.0083697,11.0930512 12.0967226,13.1749116 12.0967226,15.4716558" id="Fill-16" fill="#1F3464" mask="url(#mask-2)"></path>
            </g>
        </g>
    </g>
</svg>
