
<svg width="33px" height="33px" viewBox="0 0 33 33" version="1.1" xmlns="http://www.w3.org/2000/svg" xmlns:xlink="http://www.w3.org/1999/xlink">
    <g id="Paymo---FINAL-v0.2" stroke="none" stroke-width="1" fill="none" fill-rule="evenodd">
        <g id="3.2-New-Transfer---To" transform="translate(-827.000000, -31.000000)">
            <g id="Group-12" transform="translate(611.000000, 28.000000)">
                <g id="Group-3" transform="translate(216.000000, 3.000000)">
                    <path d="M21.0166,27.951 L11.266475,27.951 C11.266475,30.64325 13.449975,32.825375 16.142225,32.825375 C18.8331,32.825375 21.0166,30.64325 21.0166,27.951" id="Path" fill="#D3D3D3"></path>
                    <path d="M19.359725,29.326 C18.823475,30.5745 17.583225,31.450375 16.142225,31.450375 C14.69985,31.450375 13.4596,30.5745 12.92335,29.326 L19.359725,29.326" id="Path" fill="#D3D3D3"></path>
                    <path d="M16.49945,1.3748625 C22.196075,1.3748625 26.82845,6.0086125 26.82845,11.7038625 L26.82845,17.6658625 C26.82845,19.7146125 28.501825,20.4818625 29.610075,20.9878625 C30.96995,21.6107375 31.62445,21.9723625 31.62445,23.3858625 L31.62445,23.4958625 C31.62445,24.4349875 30.85995,25.2008625 29.91945,25.2008625 L3.07945,25.2008625 C2.140325,25.2008625 1.37445,24.4349875 1.37445,23.4958625 L1.37445,23.3858625 C1.37445,21.9723625 2.02895,21.6107375 3.388825,20.9878625 C4.497075,20.4818625 6.17045,19.7146125 6.17045,17.6658625 L6.17045,11.7093625 L6.17045,11.6667375 C6.191075,5.9879875 10.816575,1.3748625 16.49945,1.3748625" id="Path" fill="#D3D3D3"></path>
                </g>
            </g>
        </g>
    </g>
</svg>