
<svg width="18px" height="18px" viewBox="0 0 18 18" version="1.1" xmlns="http://www.w3.org/2000/svg" xmlns:xlink="http://www.w3.org/1999/xlink">
    <g id="Mainframe-OS---FINAL-v0.3" stroke="none" stroke-width="1" fill="none" fill-rule="evenodd">
        <g id="6.0-MFOS_Identities-Copy" transform="translate(-216.000000, -192.000000)" fill="#D3D3D3">
            <path d="M225.003,191.9999 C229.973,191.9999 234,196.0269 234,200.9969 C234,205.9669 229.973,209.9999 225.003,209.9999 C220.026,209.9999 216.006,205.9739 216,201.0029 L216,200.9969 C216,196.0269 220.026,191.9999 225.003,191.9999 Z M225.003,192.9999 C220.59,192.9999 217,196.5869 217,200.9969 C217.006,205.4119 220.596,208.9999 225.003,208.9999 C229.413,208.9999 233,205.4099 233,200.9969 C233,196.5869 229.413,192.9999 225.003,192.9999 Z M223.9997,196.876 C223.9997,196.627999 224.083699,196.420001 224.2517,196.252 C224.419701,196.083999 224.627699,196 224.8757,196 C225.115701,196 225.319699,196.083999 225.4877,196.252 C225.655701,196.420001 225.7397,196.627999 225.7397,196.876 C225.7397,197.124001 225.655701,197.331999 225.4877,197.5 C225.319699,197.668001 225.115701,197.752 224.8757,197.752 C224.627699,197.752 224.419701,197.668001 224.2517,197.5 C224.083699,197.331999 223.9997,197.124001 223.9997,196.876 Z M225.5477,198.628 L225.5477,205.24 L224.1797,205.24 L224.1797,198.628 L225.5477,198.628 Z" id="Combined-Shape"></path>
        </g>
    </g>
</svg>