
<svg width="18px" height="24px" viewBox="0 0 18 24" version="1.1" xmlns="http://www.w3.org/2000/svg" xmlns:xlink="http://www.w3.org/1999/xlink">
    <g id="Paymo---FINAL-v0.2" stroke="none" stroke-width="1" fill="none" fill-rule="evenodd">
        <g id="3.2-New-Transfer---To" transform="translate(-635.000000, -74.000000)" fill="#D3D3D3">
            <g id="Group-12" transform="translate(611.000000, 28.000000)">
                <g id="Group-8" transform="translate(24.000000, 46.000000)">
                    <path d="M8.546,0 C13.265,0 17.092,3.891 17.092,8.693 L17.092,20.998 C17.092,22.656 15.748,24 14.09,24 L3,24 C1.343,24 2.77111667e-13,22.657 2.77111667e-13,21.001 L2.77111667e-13,8.693 C2.77111667e-13,3.891 3.825,0 8.546,0 Z M14.843,10.023 L14.843,8.692 C14.843,5.161 12.017,2.287 8.545,2.287 C5.073,2.287 2.248,5.161 2.248,8.692 L2.248,10.023 L14.843,10.023 Z M9.567,17.055 C9.997,16.734 10.279,16.22 10.28,15.636 C10.28,14.663 9.504,13.873 8.546,13.873 C7.589,13.873 6.812,14.663 6.812,15.636 C6.812,16.22 7.094,16.734 7.524,17.055 L7.524,19.777 C7.524,20.351 7.981,20.816 8.546,20.816 C9.11,20.816 9.567,20.351 9.567,19.777 L9.567,17.055 Z" id="Combined-Shape"></path>
                </g>
            </g>
        </g>
    </g>
</svg>