
<svg width="19px" height="26px" viewBox="0 0 19 26" version="1.1" xmlns="http://www.w3.org/2000/svg" xmlns:xlink="http://www.w3.org/1999/xlink">
    <g id="Paymo---FINAL-v0.2" stroke="none" stroke-width="1" fill="none" fill-rule="evenodd">
        <g id="2.2-New-Transfer---From" transform="translate(-634.000000, -73.000000)" stroke="#D3D3D3">
            <g id="Group-12" transform="translate(611.000000, 28.000000)">
                <g id="Group-8" transform="translate(24.000000, 46.000000)">
                    <path d="M14.843,10.023 L2.248,10.023 L2.248,8.692 C2.248,5.161 5.073,2.287 8.545,2.287 C12.017,2.287 14.843,5.161 14.843,8.692 L14.843,10.023 Z M9.567,17.055 L9.567,19.777 C9.567,20.351 9.11,20.816 8.546,20.816 C7.981,20.816 7.524,20.351 7.524,19.777 L7.524,17.055 C7.094,16.734 6.812,16.22 6.812,15.636 C6.812,14.663 7.589,13.873 8.546,13.873 C9.504,13.873 10.28,14.663 10.28,15.636 C10.279,16.22 9.997,16.734 9.567,17.055 Z M8.546,0 C3.825,0 2.77111667e-13,3.891 2.77111667e-13,8.693 L2.77111667e-13,21.001 C2.77111667e-13,22.657 1.343,24 3,24 L14.09,24 C15.748,24 17.092,22.656 17.092,20.998 L17.092,8.693 C17.092,3.891 13.265,0 8.546,0 Z" id="Stroke-1"></path>
                </g>
            </g>
        </g>
    </g>
</svg>