
<svg width="30px" height="29px" viewBox="0 0 30 29" version="1.1" xmlns="http://www.w3.org/2000/svg" xmlns:xlink="http://www.w3.org/1999/xlink">
    <g id="Paymo---FINAL-v0.2" stroke="none" stroke-width="1" fill="none" fill-rule="evenodd">
        <g id="2.6-New-Transfer---From" transform="translate(-860.000000, -34.000000)" fill="#D3D3D3">
            <path d="M881.872943,53.1470659 C881.577945,53.1470659 881.337947,52.9058052 881.337947,52.6079991 C881.337947,52.3114496 881.577945,52.0701889 881.872943,52.0701889 C882.16794,52.0701889 882.409188,52.3114496 882.409188,52.6079991 C882.409188,52.9058052 882.16794,53.1470659 881.872943,53.1470659 Z M887.758519,40.3758332 C889.077258,40.9601363 889.99975,42.2820436 889.99975,43.8225933 L889.99975,48.3135596 L881.847318,48.3135596 C879.492338,48.3135596 877.576104,50.2398751 877.576104,52.6085017 C877.576104,54.9771284 879.492338,56.9034438 881.847318,56.9034438 L889.99975,56.9034438 L889.99975,58.891331 C889.99975,60.9734606 888.321014,62.6610285 886.249781,62.6610285 L869.919917,62.6610285 L867.577437,62.6610285 L863.749969,62.6610285 C861.678736,62.6610285 860,60.9734606 860,58.891331 L860,43.8225933 C860,43.7698175 860.01375,43.7208115 860.01625,43.6680357 L860.01625,40.1986574 C860.01625,37.8224914 861.938734,35.8898931 864.301214,35.8898931 L867.992433,35.8898931 L863.348722,37.29976 C863.319972,37.3148388 863.298723,37.3261478 863.271223,37.3387135 C862.104982,37.7659459 861.266239,38.8817764 861.266239,40.1986574 L861.266239,41.0191949 C861.928734,40.4248392 862.792477,40.0528957 863.749969,40.0528957 L867.577437,40.0528957 L869.919917,40.0528957 L886.249781,40.0528957 C886.334781,40.0528957 886.41353,40.0730008 886.496029,40.0780271 C886.43853,38.6141278 885.354789,37.4178772 883.9473,37.1929519 C883.818552,36.7330488 883.638553,36.3007901 883.428555,35.8898931 L883.472304,35.8898931 C885.836035,35.8898931 887.758519,37.8224914 887.758519,40.1986574 L887.758519,40.3758332 Z M862.524354,39.0984083 C862.904351,38.682485 863.365597,38.3897052 863.889343,38.2502264 L878.232973,34.0909934 C879.105466,33.8572722 880.054208,34.0771712 880.901701,34.7117369 C881.791693,35.3777168 882.455438,36.4081008 882.779185,37.631996 L883.206682,39.0984083 L862.524354,39.0984083 Z M883.658803,52.6083761 C883.658803,51.6182022 882.85756,50.814 881.872568,50.814 C880.888826,50.814 880.087583,51.6182022 880.087583,52.6083761 C880.087583,53.59855 880.888826,54.4040087 881.872568,54.4040087 C882.85756,54.4040087 883.658803,53.59855 883.658803,52.6083761 Z M878.825093,52.6083761 C878.825093,50.9333738 880.181332,49.5699998 881.847568,49.5699998 L890,49.5699998 L890,55.6467523 L881.847568,55.6467523 C880.181332,55.6467523 878.825093,54.2833784 878.825093,52.6083761 Z" id="Combined-Shape" transform="translate(875.000000, 48.330514) rotate(-360.000000) translate(-875.000000, -48.330514) "></path>
        </g>
    </g>
</svg>