<?xml version="1.0" encoding="UTF-8"?>
<svg width="12px" height="19px" viewBox="0 0 12 19" version="1.1" xmlns="http://www.w3.org/2000/svg" xmlns:xlink="http://www.w3.org/1999/xlink">
    <!-- Generator: Sketch 50.2 (55047) - http://www.bohemiancoding.com/sketch -->
    <title>Fill 1</title>
    <desc>Created with Sketch.</desc>
    <defs></defs>
    <g id="Symbols" stroke="none" stroke-width="1" fill="none" fill-rule="evenodd">
        <g id="Icons/Grey-Down-arrow-Copy-2" transform="translate(-3.000000, 0.000000)" fill="#727272">
            <path d="M17.5192132,6.86503277 L9.9592199,14.5940258 C9.42976586,15.1353155 8.57130368,15.1353155 8.04179514,14.5940815 L0.48087534,6.86536707 C-0.160246362,6.20991343 -0.160300861,5.14728067 0.480766343,4.49188274 C1.12183355,3.83637339 2.16123113,3.83631767 2.80235283,4.49171559 L8.04168614,9.84722425 C8.57119468,10.388514 9.42965686,10.388514 9.9591654,9.84716854 L15.1976267,4.49154844 C15.8386939,3.83615052 16.8780915,3.83615052 17.5192132,4.49154844 C17.8397196,4.81927526 18,5.24879686 18,5.67831846 C18,6.10784006 17.8397196,6.53736167 17.5192132,6.86503277 Z" id="Fill-1" transform="translate(9.000000, 9.500000) rotate(-270.000000) translate(-9.000000, -9.500000) "></path>
        </g>
    </g>
</svg>