<svg width="189" height="24" viewBox="0 0 189 24" xmlns="http://www.w3.org/2000/svg" xmlns:xlink="http://www.w3.org/1999/xlink"><defs><path id="a" d="M0 23.944h188.783V0H0z"/></defs><g fill="none" fill-rule="evenodd"><path d="M50.68 6.998c4.8 0 7.592 2.821 7.592 6.65V23.5h-4.969v-8.787c0-1.788-1.156-2.917-2.624-2.918-1.446 0-2.586 1.096-2.622 2.836v8.87h-4.973v-8.87c-.035-1.74-1.176-2.835-2.62-2.836-1.47 0-2.625 1.13-2.625 2.918V23.5h-4.97v-9.853c0-3.829 2.793-6.65 7.594-6.65h.001c2.114 0 3.839.548 5.107 1.488 1.268-.94 2.992-1.488 5.107-1.488h.001zm111.177 0h-.001c-2.115 0-3.84.548-5.107 1.488-1.269-.94-2.993-1.488-5.107-1.488h-.002c-4.8 0-7.593 2.821-7.593 6.65V23.5h4.97v-8.787c0-1.788 1.155-2.917 2.624-2.918 1.445 0 2.586 1.096 2.621 2.836v8.87h4.973v-8.87c.036-1.74 1.176-2.835 2.621-2.836 1.469 0 2.625 1.13 2.625 2.918V23.5h4.97v-9.853c0-3.829-2.793-6.65-7.594-6.65m-42.249 16.567h-4.97V13.119c0-3.703 2.532-6.057 6.314-6.057a7.62 7.62 0 0 1 3.094.66l-1.063 3.89c-.468-.156-.968-.25-1.343-.25-1.188 0-2.032.72-2.032 1.976v10.226z" fill="#232323"/><mask id="b" fill="#fff"><use xlink:href="#a"/></mask><path d="M79.732 23.502h5V7.442h-5v16.06zm5.407-20.646c0 1.6-1.22 2.793-2.907 2.793s-2.875-1.193-2.875-2.793C79.357 1.318 80.545 0 82.232 0c1.688 0 2.907 1.318 2.907 2.856zm27.686 4.585v3.985h-3.68v12.076h-4.97V6.5c0-3.703 2.532-6.057 6.314-6.057a7.61 7.61 0 0 1 3.094.66l-1.063 3.89c-.469-.157-.969-.25-1.344-.25-1.188 0-2.031.72-2.031 1.976v.721h3.68zm-18.369-.443h-.001c-4.801 0-7.594 2.821-7.594 6.65V23.5h4.97v-8.787c0-1.788 1.156-2.917 2.625-2.918 1.468 0 2.624 1.13 2.624 2.918V23.5h4.97v-9.853c0-3.829-2.793-6.65-7.594-6.65M68.821 19.324c-2.206 0-3.995-1.725-3.995-3.854 0-2.128 1.789-3.853 3.995-3.853 2.206 0 3.995 1.725 3.995 3.853 0 2.129-1.789 3.854-3.995 3.854m8.784-3.854c0-4.679-3.933-8.473-8.784-8.473-4.851 0-8.784 3.794-8.784 8.473 0 4.68 3.933 8.474 8.784 8.474a8.976 8.976 0 0 0 4.616-1.265v.823h4.167V15.47m55.534 3.854c-2.207 0-3.995-1.725-3.995-3.854 0-2.128 1.788-3.853 3.995-3.853 2.206 0 3.995 1.725 3.995 3.853 0 2.129-1.79 3.854-3.995 3.854m8.783-3.854c0-4.679-3.932-8.473-8.783-8.473-4.851 0-8.784 3.794-8.784 8.473 0 4.68 3.933 8.474 8.784 8.474a8.976 8.976 0 0 0 4.615-1.265v.823h4.167V15.61l.001-.14M180 11.617c1.346 0 2.532.645 3.255 1.63h-6.51a4.025 4.025 0 0 1 3.255-1.63zm8.687 5.11c.063-.41.097-.83.097-1.256 0-4.68-3.933-8.474-8.784-8.474-4.851 0-8.784 3.794-8.784 8.474s3.933 8.473 8.784 8.473c3.944 0 7.28-2.508 8.39-5.96h-5.365a4.045 4.045 0 0 1-3.025 1.34c-1.75 0-3.233-1.086-3.774-2.597h12.46z" fill="#232323" mask="url(#b)"/><path d="M20.536 19.145a3.667 3.667 0 0 1-3.66-3.674 3.666 3.666 0 0 1 3.66-3.674 3.666 3.666 0 0 1 3.659 3.674 3.667 3.667 0 0 1-3.66 3.674m0-12.147a8.394 8.394 0 0 0-6.048 2.568 8.46 8.46 0 0 1 2.39 5.905 8.46 8.46 0 0 1-2.39 5.904 8.395 8.395 0 0 0 6.049 2.568c4.66 0 8.438-3.793 8.438-8.472 0-4.68-3.778-8.473-8.438-8.473" fill="#00A8E7" mask="url(#b)"/><path d="M8.438 19.145A3.667 3.667 0 0 1 4.78 15.47a3.666 3.666 0 0 1 3.66-3.674 3.666 3.666 0 0 1 3.658 3.674 3.667 3.667 0 0 1-3.659 3.674m6.05-9.579a8.394 8.394 0 0 0-6.05-2.568C3.778 6.998 0 10.791 0 15.471c0 4.679 3.778 8.472 8.438 8.472a8.395 8.395 0 0 0 6.05-2.568 8.46 8.46 0 0 1-2.39-5.904 8.46 8.46 0 0 1 2.39-5.905" fill="#DA1157" mask="url(#b)"/><path d="M12.097 15.472a8.46 8.46 0 0 0 2.39 5.904 8.46 8.46 0 0 0 2.389-5.904 8.46 8.46 0 0 0-2.39-5.905 8.46 8.46 0 0 0-2.39 5.905" fill="#1F3464" mask="url(#b)"/></g></svg>